<svg width="207" height="75" viewBox="0 0 207 75" fill="none" xmlns="http://www.w3.org/2000/svg">
<path fill-rule="evenodd" clip-rule="evenodd" d="M184.104 29.8644C183.856 32.2961 183.856 32.2961 186.019 32.2961C187.905 32.2961 189.791 32.2961 191.779 32.2961C191.779 33.6539 191.779 34.9253 191.779 36.2774C187.663 36.2774 183.539 36.2774 179.337 36.2774C179.337 30.8664 179.337 25.464 179.337 19.9752C183.334 19.9752 187.345 19.9752 191.417 19.9752C191.417 21.2581 191.417 22.502 191.417 23.8639C188.988 23.8639 186.598 23.8639 184.108 23.8639C184.108 24.6536 184.108 25.327 184.108 26.1069C186.235 26.1069 188.333 26.1069 190.508 26.1069C190.508 27.3783 190.508 28.546 190.508 29.8644C188.396 29.8644 186.275 29.8644 184.104 29.8644Z" fill="#5F0197"/>
<path fill-rule="evenodd" clip-rule="evenodd" d="M195.096 36.2738C195.096 30.8405 195.096 25.4419 195.096 19.9638C196.687 19.9638 198.257 19.9638 199.939 19.9638C199.939 23.9475 199.939 27.9016 199.939 32.0416C202.341 32.0416 204.644 32.0416 207 32.0416C207 33.5491 207 34.8699 207 36.2738C203.038 36.2738 199.1 36.2738 195.096 36.2738Z" fill="#5F0197"/>
<path fill-rule="evenodd" clip-rule="evenodd" d="M171.343 36.5008C170.14 36.5008 169.022 36.5588 167.914 36.4675C167.558 36.4375 167.127 36.099 166.899 35.7596C165.398 33.5121 163.945 31.2264 162.472 28.9562C162.278 28.6556 162.068 28.3647 161.726 27.867C161.726 30.873 161.726 33.638 161.726 36.44C160.262 36.44 158.892 36.44 157.465 36.44C157.465 30.8595 157.465 25.3386 157.465 19.6701C158.704 19.6701 159.913 19.624 161.114 19.7034C161.4 19.7219 161.728 20.1065 161.928 20.4125C163.474 22.7661 164.991 25.1403 166.521 27.5051C166.71 27.7979 166.923 28.071 167.177 28.4248C167.177 25.4665 167.177 22.6469 167.177 19.7458C168.512 19.7458 169.883 19.7458 171.343 19.7458C171.343 25.2736 171.343 30.822 171.343 36.5008Z" fill="#5F0197"/>
<path fill-rule="evenodd" clip-rule="evenodd" d="M134.961 19.7034C136.53 19.7034 137.911 19.7034 139.378 19.7034C139.401 20.0608 139.44 20.3891 139.44 20.7177C139.446 23.7155 139.459 26.7157 139.44 29.7135C139.415 33.5282 137.151 36.275 133.752 36.507C132.655 36.5819 131.503 36.5243 130.443 36.2236C127.749 35.4614 126.13 32.9885 126.12 29.8682C126.11 26.6409 126.122 23.4161 126.126 20.1904C126.126 20.0794 126.156 19.9679 126.185 19.7626C127.64 19.7626 129.105 19.7626 130.708 19.7626C130.708 20.2398 130.708 20.7206 130.708 21.1998C130.708 23.9335 130.705 26.6656 130.709 29.3984C130.713 31.2782 131.423 32.2415 132.79 32.2382C134.195 32.2345 134.956 31.2284 134.961 29.3384C134.967 26.5689 134.962 23.7965 134.962 21.0258C134.961 20.6174 134.961 20.2093 134.961 19.7034Z" fill="#5F0197"/>
<path fill-rule="evenodd" clip-rule="evenodd" d="M143.066 36.4062C143.066 30.8623 143.066 25.3431 143.066 19.7445C146.733 19.7445 150.365 19.7445 154.08 19.7445C154.08 21.0369 154.08 22.3347 154.08 23.7628C151.878 23.7628 149.697 23.7628 147.444 23.7628C147.444 24.5509 147.444 25.2148 147.444 25.9942C149.35 25.9942 151.262 25.9942 153.261 25.9942C153.261 27.3265 153.261 28.5457 153.261 29.885C151.337 29.885 149.425 29.885 147.443 29.885C147.443 30.7336 147.443 31.4653 147.443 32.3402C149.795 32.3402 152.112 32.3402 154.484 32.3402C154.484 33.7564 154.484 35.0328 154.484 36.4066C150.709 36.4062 146.917 36.4062 143.066 36.4062Z" fill="#5F0197"/>
<path fill-rule="evenodd" clip-rule="evenodd" d="M85.372 35.8045C83.7493 35.8045 82.3346 35.8045 80.7853 35.8045C80.7853 31.6599 80.7853 27.552 80.7853 23.3531C79.2111 23.3531 77.7664 23.3531 76.2319 23.3531C76.2319 21.8917 76.2319 20.5191 76.2319 19.077C80.8235 19.077 85.3999 19.077 90.0382 19.077C90.0382 20.4693 90.0382 21.8152 90.0382 23.2815C88.5202 23.2815 87.014 23.2815 85.3716 23.2815C85.372 27.5005 85.372 31.6056 85.372 35.8045Z" fill="#5F0197"/>
<path fill-rule="evenodd" clip-rule="evenodd" d="M114.906 19.1917C110.982 19.3842 107.836 22.412 107.381 26.6281C106.871 31.3444 109.04 35.2286 113 36.3203C114.302 36.6798 115.731 36.5403 117.098 36.4942C117.691 36.4745 118.104 36.4918 118.436 37.1211C118.79 37.7932 119.245 38.3991 119.687 39.0848C120.763 38.1803 121.754 37.3465 122.765 36.4938C122.241 35.6523 121.781 34.911 121.363 34.2406C121.869 33.2863 122.449 32.4632 122.779 31.5295C124.968 25.3555 121.395 18.8733 114.906 19.1917ZM118.45 29.6617C117.94 28.9168 117.517 28.2989 117.061 27.6363C116.012 28.4836 115.009 29.2948 113.971 30.1351C114.323 30.7435 114.625 31.2634 114.963 31.8479C112.82 31.6171 111.567 29.521 111.994 27.0576C112.392 24.7545 114.317 23.4247 116.349 24.0495C118.309 24.6513 119.29 27.0962 118.45 29.6617Z" fill="#5F0197"/>
<path fill-rule="evenodd" clip-rule="evenodd" d="M97.3984 19.1917C92.701 19.1814 89.3189 22.8328 89.3115 27.9246C89.3033 33.0016 92.7071 36.7254 97.3614 36.7287C102.039 36.7336 105.421 33.0592 105.432 27.9645C105.443 22.8394 102.112 19.202 97.3984 19.1917ZM97.3947 31.9688C95.3962 31.977 93.9519 30.3021 93.9388 27.9604C93.9269 25.6183 95.3592 23.9331 97.3651 23.9298C99.3756 23.9261 100.819 25.5928 100.825 27.9291C100.832 30.2597 99.3866 31.961 97.3947 31.9688Z" fill="#5F0197"/>
<path fill-rule="evenodd" clip-rule="evenodd" d="M159.335 64.4107C157.165 64.4107 155.241 64.4107 153.227 64.4107C153.227 56.9965 153.227 49.651 153.227 42.0874C154.902 42.0874 156.584 42.0233 158.254 42.1372C158.641 42.1635 159.081 42.7398 159.34 43.1664C160.966 45.8486 162.546 48.5614 164.279 51.4995C164.799 50.6904 165.227 50.0598 165.621 49.4074C166.883 47.3134 168.158 45.2259 169.375 43.103C169.788 42.384 170.236 42.0093 171.094 42.0586C172.442 42.1405 173.798 42.0821 175.281 42.0821C175.281 49.5481 175.281 56.9261 175.281 64.3922C173.303 64.3922 171.339 64.3922 169.28 64.3922C169.28 60.8514 169.28 57.3428 169.28 53.8333C169.188 53.7803 169.093 53.7285 169 53.6754C168.565 54.3278 168.117 54.9731 167.696 55.6362C167.028 56.6896 166.388 57.7615 165.719 58.8129C164.93 60.0485 163.486 60.0518 162.703 58.8104C161.694 57.2075 160.711 55.5844 159.708 53.9765C159.667 53.9111 159.553 53.8946 159.335 53.7877C159.335 57.3383 159.335 60.8259 159.335 64.4107Z" fill="#8A3DB5" stroke="#60019B" stroke-width="6" stroke-miterlimit="10" stroke-linecap="round" stroke-linejoin="round"/>
<path fill-rule="evenodd" clip-rule="evenodd" d="M138.875 41.0344C132.137 41.0184 127.281 45.8741 127.268 52.6421C127.255 59.3974 132.131 64.3564 138.802 64.3695C145.496 64.3811 150.374 59.4813 150.397 52.7195C150.421 45.9321 145.608 41.0517 138.875 41.0344ZM138.824 58.0359C135.974 58.0347 133.9 55.7748 133.899 52.6685C133.899 49.5671 135.974 47.3344 138.849 47.3414C141.74 47.3496 143.768 49.5568 143.763 52.694C143.758 55.8049 141.694 58.0384 138.824 58.0359Z" fill="#8A3DB5" stroke="#60019B" stroke-width="6" stroke-miterlimit="10" stroke-linecap="round" stroke-linejoin="round"/>
<path d="M117.002 42.3367C113.018 41.7362 108.922 41.9402 104.823 41.7835C104.823 49.4733 104.823 56.8521 104.823 64.3255C108.131 64.3255 111.326 64.3416 114.52 64.3128C115.193 64.3058 115.867 64.1573 116.534 64.0388C121.572 63.1602 125.081 58.8536 125.186 53.4302C125.295 47.8403 122.075 43.1001 117.002 42.3367ZM114.985 58.8014C114.731 58.8614 114.475 58.9351 114.219 58.94C113.007 58.9548 111.794 58.947 110.537 58.947C110.537 55.1537 110.537 51.4082 110.537 47.5067C112.092 47.5849 113.649 47.4824 115.162 47.7881C117.087 48.1751 118.311 50.581 118.269 53.4183C118.231 56.1689 116.899 58.3543 114.985 58.8014Z" fill="#8A3DB5" stroke="#60019B" stroke-width="5" stroke-miterlimit="10" stroke-linecap="round" stroke-linejoin="round"/>
<path fill-rule="evenodd" clip-rule="evenodd" d="M100.132 59.6635C98.8986 61.4935 97.8315 63.0784 96.6703 64.8014C90.6731 62.3832 84.8421 60.06 79.0598 57.6789C77.8117 57.1672 77.8987 54.1632 79.146 53.6503C84.8864 51.2992 90.6579 48.9896 96.6638 46.5644C97.8196 48.2804 98.911 49.8986 100.131 51.7105C96.3786 53.0095 92.7033 54.2821 88.6623 55.681C92.6967 57.0816 96.3671 58.3555 100.132 59.6635Z" fill="#F9CA2F"/>
<path fill-rule="evenodd" clip-rule="evenodd" d="M192.922 54.8699C188.961 53.5096 185.291 52.2501 181.356 50.8985C182.502 49.1993 183.619 47.5458 184.832 45.7466C190.908 48.1669 196.805 50.4868 202.65 52.8729C203.988 53.4179 203.74 56.4399 202.364 56.9944C196.616 59.3135 190.843 61.6025 184.847 63.9952C183.68 62.2841 182.573 60.6602 181.343 58.8598C185.122 57.5575 188.838 56.2775 192.922 54.8699Z" fill="#F9CA2F"/>
<path fill-rule="evenodd" clip-rule="evenodd" d="M6.28757 29.333C6.28757 29.333 7.23042 6.64987 30.9567 0.820936C30.9567 0.820936 52.7977 -2.48697 62.0682 15.0772C62.0682 15.0772 69.7678 30.2786 64.7392 34.2167C64.7392 34.2167 59.5536 36.7369 58.2968 31.2235C58.2968 31.2235 57.983 13.4232 40.6987 9.32762C40.6987 9.32762 17.2862 6.49192 14.4581 30.9088C14.4581 30.9088 13.9867 37.5246 7.23001 33.7441C7.23001 33.7441 5.88179 32.3978 6.28757 29.333Z" fill="#EDC728"/>
<path fill-rule="evenodd" clip-rule="evenodd" d="M13.0305 53.0622C13.0305 59.9355 17.2528 66.4933 11.1144 66.4933C4.97643 66.4933 0 60.9219 0 54.049C0 47.1761 4.97602 41.6046 11.1144 41.6046C13.0255 41.6046 13.0305 48.3294 13.0305 53.0622Z" fill="#620197"/>
<path fill-rule="evenodd" clip-rule="evenodd" d="M60.3115 54.7679C60.9282 47.9222 57.3115 41.0102 63.4248 41.5634C69.5381 42.1171 73.9943 48.1143 73.3776 54.9596C72.761 61.8045 67.3049 66.905 61.1916 66.3514C59.2878 66.179 59.8869 59.4813 60.3115 54.7679Z" fill="#620197"/>
<path fill-rule="evenodd" clip-rule="evenodd" d="M14.9615 69.6921C11.6997 69.3018 8.8666 68.111 6.44547 66.0177C6.09509 65.7146 5.85096 65.0885 5.84768 64.6097C5.80665 57.5978 5.83619 50.5851 5.78573 43.5732C5.77875 42.6057 6.22105 42.0401 6.92346 41.642C7.82774 41.1291 7.98652 40.408 7.98037 39.4418C7.9578 35.6864 7.73707 31.9038 8.09484 28.1796C9.33884 15.2347 19.027 5.08024 31.8642 2.98C48.8461 0.201885 64.4848 13.4158 64.628 30.683C64.6538 33.7651 64.6181 36.8484 64.5496 39.93C64.5315 40.7395 64.7301 41.3253 65.4436 41.7074C66.2416 42.136 66.4833 42.8176 66.4812 43.6986C66.4648 50.4987 66.4574 57.2988 66.496 64.0985C66.5022 65.1901 66.091 65.898 65.2438 66.5282C62.8818 68.2862 60.0704 69.4317 57.271 69.6391C57.271 59.2723 57.271 48.9122 57.271 38.4114C58.0489 38.5023 58.8178 38.5916 59.684 38.6928C59.807 31.3292 59.9035 24.1021 55.3919 17.6434C47.0179 5.65486 29.2921 4.29954 19.3639 15.0307C15.1358 19.601 12.4443 24.4448 12.43 30.6842C12.4246 33.1217 12.43 36.8562 12.43 39.3583C13.1 39.2974 14.243 38.4805 14.9619 38.4151C14.9615 48.8155 14.9615 59.1781 14.9615 69.6921Z" fill="#20B2AD" stroke="#620197" stroke-width="5" stroke-miterlimit="10"/>
<path fill-rule="evenodd" clip-rule="evenodd" d="M19.6958 54.144C19.6958 60.012 19.688 65.8787 19.7003 71.7468C19.704 73.694 20.676 74.6655 22.4595 74.5664C23.7093 74.4973 24.4441 73.856 24.6857 72.7274C24.7653 72.3588 24.7584 71.9709 24.7584 71.5913C24.7629 59.8573 24.7674 48.1221 24.7604 36.3873C24.7596 34.5413 23.8705 33.6018 22.2289 33.622C20.591 33.6429 19.7015 34.6034 19.6991 36.4153C19.6896 42.3244 19.6954 48.234 19.6958 54.144Z" fill="#620197"/>
<path fill-rule="evenodd" clip-rule="evenodd" d="M15.5373 54.4385C15.5373 59.6669 15.5336 64.8957 15.5394 70.1245C15.5414 71.8599 16.0276 72.7249 16.9192 72.6365C17.544 72.5756 17.9117 72.0039 18.0327 70.9986C18.0725 70.6699 18.0688 70.3244 18.0688 69.9863C18.0708 59.5295 18.0733 49.0727 18.0696 38.6159C18.0692 36.9706 17.6249 36.1331 16.8035 36.1512C15.9845 36.1701 15.5398 37.0261 15.5385 38.6402C15.534 43.9064 15.5373 49.1726 15.5373 54.4385Z" fill="#EDC728"/>
<path fill-rule="evenodd" clip-rule="evenodd" d="M54.217 54.6244C54.217 59.8532 54.2133 65.082 54.219 70.3104C54.2211 72.0458 54.7073 72.9113 55.5989 72.8232C56.2237 72.7615 56.5913 72.1902 56.7124 71.1845C56.7522 70.8567 56.7485 70.5103 56.7485 70.1726C56.7505 59.7158 56.753 49.2586 56.7493 38.8018C56.7489 37.1565 56.3046 36.3195 55.4831 36.338C54.6642 36.3565 54.2195 37.212 54.2182 38.8269C54.2141 44.0923 54.217 49.3586 54.217 54.6244Z" fill="#EDC728"/>
<path fill-rule="evenodd" clip-rule="evenodd" d="M47.1695 51.0392C47.1687 45.3357 47.1736 39.6322 47.1646 33.9283C47.1629 32.654 47.7558 31.8466 48.967 31.5171C49.9956 31.237 51.2474 31.7586 51.6257 32.7211C51.8484 33.2891 51.8936 33.9551 51.8948 34.577C51.9104 42.9418 51.9038 51.3066 51.9034 59.6714C51.9034 62.4182 51.9149 65.1643 51.9022 67.9099C51.8936 69.7535 51.0812 70.6913 49.5348 70.6966C48.052 70.7024 47.1773 69.6901 47.174 67.8959C47.1633 62.2771 47.1699 56.6584 47.1695 51.0392Z" fill="#620197"/>
<path fill-rule="evenodd" clip-rule="evenodd" d="M38.6224 53.9436C38.6224 58.9256 38.6191 63.9076 38.6256 68.8892C38.6273 69.8994 38.2843 70.7077 37.3607 71.1832C36.4445 71.6546 35.4094 71.6356 34.7915 70.8907C34.2573 70.2462 33.886 69.2549 33.8798 68.4133C33.815 59.886 33.84 51.3576 33.84 42.8299C33.84 41.521 33.8047 40.211 33.8511 38.9038C33.9065 37.3477 34.8694 36.4078 36.2968 36.4247C37.7156 36.4416 38.6121 37.4012 38.6166 38.9988C38.6314 43.9804 38.6219 48.962 38.6224 53.9436Z" fill="#620197"/>
<path fill-rule="evenodd" clip-rule="evenodd" d="M27.2403 56.3857C27.239 52.9252 27.2325 49.4642 27.2415 46.0037C27.2464 44.2971 28.0937 43.3169 29.5502 43.2886C31.0872 43.2589 32.0107 44.242 32.0132 45.9852C32.0234 52.9486 32.0243 59.9116 32.0132 66.875C32.0103 68.5034 31.0494 69.5486 29.6245 69.5606C28.1975 69.5717 27.2505 68.5322 27.2448 66.8943C27.2329 63.3914 27.2415 59.8886 27.2403 56.3857Z" fill="#620197"/>
<path fill-rule="evenodd" clip-rule="evenodd" d="M45.2274 53.0646C45.2291 55.4306 45.2397 57.7965 45.2254 60.1625C45.2159 61.7691 44.3564 62.7703 42.9827 62.8279C41.598 62.8867 40.5078 61.8251 40.4964 60.2234C40.4619 55.4071 40.4594 50.5901 40.5058 45.7738C40.5218 44.0964 41.4942 43.2314 43.0422 43.2964C44.4364 43.3548 45.2122 44.2387 45.2221 45.8396C45.2365 48.248 45.2258 50.6563 45.2274 53.0646Z" fill="#620197"/>
<path fill-rule="evenodd" clip-rule="evenodd" d="M24.0184 52.4357C24.0188 54.997 24.0229 57.5571 24.0175 60.118C24.0143 61.8571 23.6905 62.9406 23.1736 63.0035C22.6529 63.0669 22.2426 61.918 22.2381 60.1843C22.2254 54.9711 22.2242 49.7575 22.2414 44.5451C22.2476 42.7295 22.6135 41.7938 23.1957 41.8633C23.7205 41.9266 24.0122 42.883 24.0163 44.6155C24.0217 47.2225 24.0175 49.8287 24.0184 52.4357Z" fill="#8A3DB5"/>
<path fill-rule="evenodd" clip-rule="evenodd" d="M29.6277 50.6822C29.6282 51.9627 29.6323 53.2444 29.6269 54.5248C29.6236 55.3948 29.2999 55.9374 28.783 55.9686C28.2623 56.0007 27.852 55.4257 27.8475 54.5582C27.8348 51.9507 27.8335 49.3421 27.8508 46.7343C27.8569 45.8261 28.2229 45.3576 28.8051 45.3925C29.3299 45.4246 29.6216 45.9026 29.6257 46.7697C29.631 48.074 29.6269 49.3779 29.6277 50.6822Z" fill="#8A3DB5"/>
<path fill-rule="evenodd" clip-rule="evenodd" d="M38.0159 62.9711C38.0167 64.2524 38.0204 65.5332 38.0151 66.8145C38.0118 67.6845 37.6881 68.2262 37.1711 68.2575C36.6505 68.2896 36.2402 67.7154 36.2357 66.8475C36.223 64.2396 36.2217 61.6314 36.239 59.0236C36.2451 58.1153 36.6111 57.6468 37.1933 57.6822C37.7181 57.7135 38.0098 58.1923 38.0139 59.0589C38.0192 60.3637 38.0151 61.6676 38.0159 62.9711Z" fill="#8A3DB5"/>
<path fill-rule="evenodd" clip-rule="evenodd" d="M42.8499 56.0694C42.8503 57.3507 42.8544 58.6316 42.8491 59.9125C42.8458 60.7824 42.5221 61.3246 42.0051 61.3558C41.4845 61.3879 41.0742 60.8137 41.0697 59.9458C41.0569 57.338 41.0557 54.7293 41.0729 52.1219C41.0791 51.2141 41.4451 50.7456 42.0273 50.7806C42.552 50.8122 42.8438 51.2906 42.8479 52.1577C42.8532 53.4616 42.8491 54.7655 42.8499 56.0694Z" fill="#8A3DB5"/>
<path fill-rule="evenodd" clip-rule="evenodd" d="M9.6071 59.0634C9.60792 60.7087 9.61366 62.3544 9.60628 63.9993C9.60135 65.1169 9.17096 65.8133 8.48249 65.8536C7.78869 65.8947 7.24259 65.1564 7.23643 64.0421C7.2192 60.6927 7.21797 57.3428 7.24136 53.9938C7.24956 52.8269 7.73658 52.2259 8.51244 52.2711C9.21117 52.3119 9.59971 52.9264 9.60505 54.0395C9.61161 55.7144 9.60628 57.3889 9.6071 59.0634Z" fill="#2AD1C5"/>
<path fill-rule="evenodd" clip-rule="evenodd" d="M64.7585 49.1093C64.7593 50.3902 64.7634 51.6714 64.7581 52.9523C64.7544 53.8223 64.4311 54.3648 63.9141 54.3961C63.393 54.4273 62.9832 53.8531 62.9786 52.9852C62.9659 50.3774 62.9651 47.7696 62.9823 45.1617C62.9885 44.2531 63.3541 43.7846 63.9367 43.82C64.4614 43.8513 64.7532 44.33 64.7568 45.1971C64.7622 46.501 64.7581 47.805 64.7585 49.1093Z" fill="#2AD1C5"/>
<path fill-rule="evenodd" clip-rule="evenodd" d="M64.7585 57.6809C64.7593 58.2371 64.7634 58.7928 64.7581 59.3489C64.7544 59.7265 64.4311 59.9613 63.9141 59.9749C63.393 59.9889 62.9832 59.7392 62.9786 59.3633C62.9659 58.2313 62.9651 57.0997 62.9823 55.9682C62.9885 55.5741 63.3541 55.3709 63.9367 55.3866C64.4614 55.4001 64.7532 55.6074 64.7568 55.9834C64.7622 56.5498 64.7581 57.1154 64.7585 57.6809Z" fill="#2AD1C5"/>
<path fill-rule="evenodd" clip-rule="evenodd" d="M51.01 63.0479C51.0108 64.6257 51.015 66.204 51.0092 67.781C51.0059 68.8534 50.6822 69.5206 50.1652 69.5592C49.6446 69.5987 49.2343 68.8904 49.2298 67.8218C49.2171 64.6097 49.2158 61.398 49.2335 58.1864C49.2396 57.0676 49.6052 56.4913 50.1874 56.5349C50.7122 56.5736 51.0043 57.1622 51.008 58.23C51.0133 59.8366 51.0096 61.4421 51.01 63.0479Z" fill="#8A3DB5"/>
<path fill-rule="evenodd" clip-rule="evenodd" d="M37.6246 53.9634C37.625 54.4956 37.6275 55.0275 37.6242 55.5593C37.6225 55.9209 37.4404 56.1459 37.1499 56.1591C36.8569 56.1722 36.6268 55.9336 36.6243 55.5729C36.6169 54.4899 36.6161 53.4069 36.6259 52.3238C36.6296 51.9466 36.8352 51.7521 37.1626 51.7669C37.4576 51.7796 37.6217 51.9791 37.6238 52.339C37.6266 52.8799 37.6242 53.4217 37.6246 53.9634Z" fill="#8A3DB5"/>
<path fill-rule="evenodd" clip-rule="evenodd" d="M50.6186 53.0626C50.619 53.5949 50.6214 54.1271 50.6182 54.659C50.6165 55.0205 50.4344 55.2455 50.1439 55.2583C49.8509 55.2719 49.6208 55.0333 49.6183 54.6726C49.6109 53.5895 49.6105 52.5061 49.6199 51.4235C49.6232 51.0463 49.8292 50.8517 50.1562 50.8665C50.4512 50.8793 50.6153 51.0788 50.6173 51.4387C50.6206 51.9796 50.6186 52.5209 50.6186 53.0626Z" fill="#8A3DB5"/>
<path fill-rule="evenodd" clip-rule="evenodd" d="M63.8642 41.8596C63.8642 41.8526 63.8901 34.5236 63.8642 31.4415C63.721 14.1743 48.9698 0.848491 31.9879 3.62661C10.9503 7.06819 8.55088 26.2834 8.41589 27.6856C8.05771 31.4098 7.96457 38.5727 8.41589 41.517C10.3701 40.8403 10.3701 40.8403 11.8443 40.3093C10.0435 27.3451 14.5645 18.1807 18.7925 13.6108C28.7212 2.87923 45.7216 5.11109 55.4832 15.9936C62.9685 24.3382 60.668 33.8942 60.57 39.7454C60.57 39.7454 62.6387 41.0678 63.8642 41.8596Z" fill="url(#paint0_linear_801750_442)"/>
<path fill-rule="evenodd" clip-rule="evenodd" d="M8.41609 40.9913C8.18838 41.1205 6.62271 41.8716 6.45654 42.0435C6.66169 41.8892 8.22982 41.1373 8.41609 40.9913Z" fill="url(#paint1_linear_801750_442)" stroke="#620197" stroke-width="2" stroke-miterlimit="10"/>
<path fill-rule="evenodd" clip-rule="evenodd" d="M138.476 41.2733C131.739 41.2573 126.882 46.113 126.869 52.881C126.856 59.6363 131.732 64.5953 138.403 64.6084C145.097 64.6199 149.975 59.7202 149.999 52.9584C150.022 46.171 145.209 41.2906 138.476 41.2733ZM138.425 58.2748C135.575 58.2736 133.502 56.0137 133.5 52.9074C133.5 49.8059 135.575 47.5733 138.45 47.5802C141.341 47.5885 143.369 49.7957 143.364 52.9329C143.359 56.0437 141.295 58.2773 138.425 58.2748Z" fill="#8A3DB5"/>
<path fill-rule="evenodd" clip-rule="evenodd" d="M158.841 64.2337C156.67 64.2337 154.747 64.2337 152.732 64.2337C152.732 56.8195 152.732 49.474 152.732 41.9109C154.408 41.9109 156.09 41.8463 157.759 41.9603C158.147 41.9866 158.587 42.5633 158.846 42.9898C160.471 45.6717 162.051 48.3848 163.785 51.3229C164.305 50.5134 164.733 49.8833 165.127 49.2309C166.389 47.1364 167.663 45.0494 168.881 42.9265C169.294 42.2071 169.741 41.8328 170.599 41.8821C171.948 41.964 173.304 41.9056 174.787 41.9056C174.787 49.3716 174.787 56.7492 174.787 64.2156C172.809 64.2156 170.845 64.2156 168.786 64.2156C168.786 60.6749 168.786 57.1663 168.786 53.6568C168.694 53.6037 168.599 53.5519 168.506 53.4989C168.07 54.1512 167.623 54.7966 167.201 55.4592C166.534 56.5131 165.894 57.5846 165.225 58.6359C164.436 59.8716 162.992 59.8753 162.209 58.6339C161.2 57.0305 160.217 55.4074 159.213 53.7999C159.173 53.7341 159.058 53.7181 158.84 53.6107C158.841 57.1613 158.841 60.6494 158.841 64.2337Z" fill="#8A3DB5"/>
<path d="M116.603 41.8265C112.619 41.226 108.523 41.43 104.424 41.2733C104.424 48.9631 104.424 56.3419 104.424 63.8153C107.732 63.8153 110.927 63.8314 114.121 63.8026C114.794 63.7956 115.468 63.6471 116.135 63.5287C121.173 62.6501 124.682 58.3434 124.787 52.9201C124.896 47.3301 121.676 42.59 116.603 41.8265ZM114.586 58.2912C114.332 58.3513 114.076 58.4249 113.82 58.4298C112.608 58.4446 111.395 58.4368 110.138 58.4368C110.138 54.6435 110.138 50.898 110.138 46.9965C111.693 47.0747 113.25 46.9723 114.763 47.2779C116.688 47.6649 117.912 50.0708 117.87 52.9081C117.832 55.6587 116.5 57.8441 114.586 58.2912Z" fill="#8A3DB5"/>
<defs>
<linearGradient id="paint0_linear_801750_442" x1="35.9936" y1="41.8597" x2="35.9936" y2="3.25929" gradientUnits="userSpaceOnUse">
<stop stop-color="#006C77"/>
<stop offset="0.2488" stop-color="#20B2AD"/>
</linearGradient>
<linearGradient id="paint1_linear_801750_442" x1="7.43632" y1="42.0433" x2="7.43632" y2="40.9913" gradientUnits="userSpaceOnUse">
<stop stop-color="#006C77"/>
<stop offset="0.2488" stop-color="#20B2AD"/>
</linearGradient>
</defs>
</svg>
