<svg width="224" height="81" viewBox="0 0 224 81" fill="none" xmlns="http://www.w3.org/2000/svg">
<path fill-rule="evenodd" clip-rule="evenodd" d="M109.769 38.1613C108.604 40.1396 107.595 41.853 106.497 43.7158C100.826 41.1015 95.3125 38.5899 89.8451 36.0157C88.665 35.4625 88.7472 32.215 89.9266 31.6605C95.3544 29.1187 100.812 26.6218 106.491 24C107.583 25.8552 108.615 27.6046 109.769 29.5634C106.221 30.9677 102.746 32.3435 98.9247 33.8559C102.739 35.37 106.21 36.7472 109.769 38.1613Z" fill="#F9CA2F"/>
<path fill-rule="evenodd" clip-rule="evenodd" d="M196.957 32.9989C193.208 31.508 189.736 30.1277 186.012 28.6463C187.097 26.7841 188.153 24.9718 189.301 23C195.051 25.6525 200.632 28.1951 206.163 30.8102C207.429 31.4075 207.194 34.7196 205.892 35.3273C200.452 37.8689 194.99 40.3777 189.315 43C188.211 41.1246 187.164 39.3449 186 37.3717C189.576 35.9444 193.093 34.5415 196.957 32.9989Z" fill="#F9CA2F"/>
<path fill-rule="evenodd" clip-rule="evenodd" d="M6.80409 32.0916C6.80409 32.0916 7.82437 7.56926 33.4992 1.26771C33.4992 1.26771 57.1339 -2.3084 67.1658 16.6799C67.1658 16.6799 75.4976 33.1139 70.0561 37.3712C70.0561 37.3712 64.4446 40.0958 63.0847 34.1353C63.0847 34.1353 62.745 14.8918 44.0412 10.4641C44.0412 10.4641 18.706 7.3985 15.6456 33.7951C15.6456 33.7951 15.1355 40.9473 7.82393 36.8603C7.82393 36.8603 6.36499 35.4049 6.80409 32.0916Z" fill="#EDC728"/>
<path fill-rule="evenodd" clip-rule="evenodd" d="M14.1006 57.7447C14.1006 65.1753 18.6697 72.2649 12.0272 72.2649C5.38512 72.2649 0 66.2417 0 58.8115C0 51.3814 5.38468 45.3582 12.0272 45.3582C14.0953 45.3582 14.1006 52.6282 14.1006 57.7447Z" fill="#620197"/>
<path fill-rule="evenodd" clip-rule="evenodd" d="M65.2647 59.5888C65.932 52.188 62.0182 44.7156 68.6336 45.3137C75.249 45.9122 80.0712 52.3956 79.4038 59.796C78.7365 67.1959 72.8324 72.71 66.217 72.1114C64.1569 71.9251 64.8051 64.6844 65.2647 59.5888Z" fill="#620197"/>
<path fill-rule="evenodd" clip-rule="evenodd" d="M16.1899 75.723C12.6603 75.301 9.59454 74.0137 6.97458 71.7507C6.59541 71.423 6.33124 70.7462 6.32769 70.2286C6.28329 62.6481 6.31526 55.0668 6.26065 47.4864C6.2531 46.4405 6.73172 45.829 7.49182 45.3986C8.47037 44.8441 8.64219 44.0645 8.63553 43.02C8.61111 38.9601 8.37224 34.8708 8.7594 30.8447C10.1056 16.8502 20.5894 5.87237 34.4808 3.60183C52.8574 0.598468 69.7804 14.8838 69.9353 33.551C69.9633 36.883 69.9247 40.2163 69.8505 43.5478C69.831 44.423 70.0459 45.0562 70.818 45.4693C71.6815 45.9326 71.943 46.6695 71.9408 47.622C71.9231 54.9734 71.9151 62.3249 71.9568 69.6758C71.9635 70.856 71.5186 71.6213 70.6018 72.3026C68.0457 74.2031 65.0035 75.4416 61.9742 75.6657C61.9742 64.4584 61.9742 53.2583 61.9742 41.9061C62.816 42.0044 63.648 42.1008 64.5853 42.2102C64.7185 34.2496 64.8228 26.4366 59.9408 19.4542C50.879 6.49358 31.6975 5.02836 20.9539 16.6296C16.3786 21.5704 13.4661 26.807 13.4506 33.5523C13.4448 36.1875 13.4506 40.2247 13.4506 42.9297C14.1756 42.8639 15.4125 41.9808 16.1904 41.9101C16.1899 53.1538 16.1899 64.3566 16.1899 75.723Z" fill="#20B2AD" stroke="#620197" stroke-width="5" stroke-miterlimit="10"/>
<path fill-rule="evenodd" clip-rule="evenodd" d="M21.3131 58.9142C21.3131 65.258 21.3047 71.6005 21.318 77.9443C21.322 80.0494 22.3738 81.0997 24.3038 80.9925C25.6562 80.9178 26.4514 80.2246 26.7129 79.0044C26.799 78.6059 26.7915 78.1866 26.7915 77.7762C26.7963 65.0908 26.8012 52.4041 26.7937 39.7179C26.7928 37.7221 25.8307 36.7065 24.0543 36.7283C22.2819 36.751 21.3193 37.7893 21.3167 39.7481C21.3065 46.1364 21.3127 52.5251 21.3131 58.9142Z" fill="#620197"/>
<path fill-rule="evenodd" clip-rule="evenodd" d="M16.8133 59.2326C16.8133 64.8849 16.8093 70.5377 16.8155 76.1905C16.8177 78.0666 17.3439 79.0017 18.3087 78.9061C18.9848 78.8403 19.3827 78.2222 19.5136 77.1354C19.5567 76.7801 19.5527 76.4066 19.5527 76.041C19.5549 64.7364 19.5576 53.4318 19.5536 42.1271C19.5531 40.3484 19.0723 39.443 18.1834 39.4626C17.2972 39.483 16.816 40.4084 16.8146 42.1534C16.8098 47.8466 16.8133 53.5398 16.8133 59.2326Z" fill="#EDC728"/>
<path fill-rule="evenodd" clip-rule="evenodd" d="M58.6698 59.4336C58.6698 65.0864 58.6658 70.7392 58.672 76.3915C58.6743 78.2676 59.2004 79.2032 60.1652 79.108C60.8414 79.0413 61.2392 78.4237 61.3701 77.3364C61.4132 76.982 61.4092 76.6076 61.4092 76.2425C61.4114 64.9379 61.4141 53.6328 61.4101 42.3281C61.4097 40.5494 60.9288 39.6445 60.04 39.6645C59.1538 39.6845 58.6725 40.6095 58.6711 42.3553C58.6667 48.0476 58.6698 53.7408 58.6698 59.4336Z" fill="#EDC728"/>
<path fill-rule="evenodd" clip-rule="evenodd" d="M51.0433 55.5578C51.0424 49.3918 51.0477 43.2259 51.038 37.0595C51.0362 35.6819 51.6778 34.809 52.9884 34.4528C54.1015 34.15 55.4561 34.7138 55.8654 35.7544C56.1065 36.3685 56.1554 37.0884 56.1567 37.7608C56.1736 46.8038 56.1665 55.8468 56.166 64.8898C56.166 67.8594 56.1784 70.8281 56.1647 73.7963C56.1554 75.7894 55.2763 76.8032 53.6029 76.809C51.9983 76.8153 51.0517 75.7209 51.0482 73.7812C51.0366 67.7069 51.0437 61.6325 51.0433 55.5578Z" fill="#620197"/>
<path fill-rule="evenodd" clip-rule="evenodd" d="M41.7942 58.6976C41.7942 64.0836 41.7906 69.4695 41.7977 74.855C41.7995 75.9472 41.4283 76.821 40.4289 77.335C39.4375 77.8446 38.3173 77.8242 37.6487 77.0188C37.0706 76.322 36.6688 75.2504 36.6621 74.3405C36.592 65.1219 36.6191 55.9019 36.6191 46.6828C36.6191 45.2678 36.5809 43.8515 36.6311 42.4384C36.691 40.7561 37.733 39.74 39.2777 39.7583C40.813 39.7765 41.7831 40.8139 41.788 42.5411C41.8039 47.9266 41.7937 53.3121 41.7942 58.6976Z" fill="#620197"/>
<path fill-rule="evenodd" clip-rule="evenodd" d="M29.4775 61.3377C29.4762 57.5966 29.4691 53.8551 29.4789 50.114C29.4842 48.269 30.401 47.2093 31.9772 47.1787C33.6404 47.1466 34.6398 48.2094 34.6424 50.094C34.6535 57.622 34.6544 65.1495 34.6424 72.6775C34.6393 74.438 33.5995 75.5679 32.0575 75.5808C30.5134 75.5928 29.4886 74.4691 29.4824 72.6984C29.4696 68.9115 29.4789 65.1246 29.4775 61.3377Z" fill="#620197"/>
<path fill-rule="evenodd" clip-rule="evenodd" d="M48.942 57.7473C48.9438 60.3051 48.9553 62.8629 48.9398 65.4207C48.9296 67.1576 47.9994 68.24 46.5129 68.3023C45.0145 68.3658 43.8348 67.2181 43.8224 65.4865C43.7851 60.2798 43.7824 55.0722 43.8326 49.8654C43.8499 48.052 44.9022 47.1168 46.5773 47.1871C48.086 47.2502 48.9256 48.2059 48.9362 49.9366C48.9518 52.5402 48.9402 55.1438 48.942 57.7473Z" fill="#620197"/>
<path fill-rule="evenodd" clip-rule="evenodd" d="M25.991 57.0674C25.9914 59.8364 25.9959 62.6041 25.9901 65.3727C25.9865 67.2528 25.6362 68.4241 25.0768 68.4921C24.5134 68.5606 24.0694 67.3186 24.0645 65.4443C24.0508 59.8084 24.0494 54.1721 24.0681 48.5371C24.0747 46.5743 24.4708 45.5627 25.1008 45.6378C25.6687 45.7063 25.9843 46.7402 25.9888 48.6132C25.9945 51.4315 25.9901 54.249 25.991 57.0674Z" fill="#8A3DB5"/>
<path fill-rule="evenodd" clip-rule="evenodd" d="M32.0607 55.1718C32.0611 56.5561 32.0656 57.9417 32.0598 59.326C32.0563 60.2665 31.7059 60.853 31.1465 60.8868C30.5831 60.9215 30.1391 60.2998 30.1342 59.362C30.1205 56.5432 30.1191 53.723 30.1378 50.9037C30.1444 49.9219 30.5405 49.4154 31.1705 49.4532C31.7384 49.4879 32.054 50.0046 32.0585 50.942C32.0642 52.3521 32.0598 53.7617 32.0607 55.1718Z" fill="#8A3DB5"/>
<path fill-rule="evenodd" clip-rule="evenodd" d="M41.138 68.457C41.1388 69.8422 41.1428 71.227 41.1371 72.6121C41.1335 73.5526 40.7832 74.1383 40.2238 74.1721C39.6604 74.2068 39.2164 73.586 39.2115 72.6477C39.1977 69.8284 39.1964 67.0087 39.2151 64.1895C39.2217 63.2076 39.6178 62.7011 40.2478 62.7394C40.8156 62.7731 41.1313 63.2908 41.1357 64.2277C41.1415 65.6382 41.1371 67.0479 41.138 68.457Z" fill="#8A3DB5"/>
<path fill-rule="evenodd" clip-rule="evenodd" d="M46.3691 60.9958C46.3695 62.381 46.374 63.7657 46.3682 65.1505C46.3647 66.091 46.0144 66.677 45.4549 66.7108C44.8915 66.7455 44.4475 66.1248 44.4426 65.1865C44.4289 62.3672 44.4275 59.547 44.4462 56.7282C44.4529 55.7468 44.8489 55.2403 45.4789 55.2781C46.0468 55.3124 46.3624 55.8295 46.3669 56.7669C46.3727 58.1765 46.3682 59.5862 46.3691 60.9958Z" fill="#8A3DB5"/>
<path fill-rule="evenodd" clip-rule="evenodd" d="M10.396 64.2326C10.3968 66.0113 10.4031 67.7904 10.3951 69.5687C10.3897 70.7769 9.92399 71.5297 9.17898 71.5733C8.4282 71.6178 7.83725 70.8196 7.83059 69.6149C7.81195 65.9939 7.81062 62.3725 7.83592 58.7519C7.8448 57.4903 8.37182 56.8407 9.21139 56.8896C9.9675 56.9336 10.388 57.5979 10.3937 58.8012C10.4008 60.612 10.3951 62.4223 10.396 64.2326Z" fill="#2AD1C5"/>
<path fill-rule="evenodd" clip-rule="evenodd" d="M70.0766 53.4713C70.0775 54.856 70.0819 56.2412 70.0761 57.626C70.0721 58.5665 69.7223 59.153 69.1629 59.1868C68.599 59.2206 68.1554 58.5998 68.1506 57.6615C68.1368 54.8423 68.1359 52.023 68.1546 49.2037C68.1612 48.2214 68.5568 47.7149 69.1873 47.7532C69.7551 47.787 70.0708 48.3046 70.0748 49.242C70.0806 50.6516 70.0761 52.0612 70.0766 53.4713Z" fill="#2AD1C5"/>
<path fill-rule="evenodd" clip-rule="evenodd" d="M70.0766 62.738C70.0775 63.3392 70.0819 63.9399 70.0761 64.5412C70.0721 64.9494 69.7223 65.2033 69.1629 65.218C68.599 65.2331 68.1554 64.9632 68.1506 64.5567C68.1368 63.333 68.1359 62.1097 68.1546 60.8863C68.1612 60.4603 68.5568 60.2407 69.1873 60.2576C69.7551 60.2722 70.0708 60.4963 70.0748 60.9028C70.0806 61.5151 70.0761 62.1265 70.0766 62.738Z" fill="#2AD1C5"/>
<path fill-rule="evenodd" clip-rule="evenodd" d="M55.1995 68.5401C55.2004 70.2459 55.2048 71.9521 55.1986 73.657C55.1951 74.8163 54.8447 75.5376 54.2853 75.5794C53.7219 75.622 53.2779 74.8563 53.273 73.701C53.2593 70.2285 53.2579 66.7565 53.277 63.2844C53.2837 62.0749 53.6793 61.4519 54.3093 61.499C54.8772 61.5408 55.1933 62.1771 55.1973 63.3315C55.203 65.0685 55.1991 66.8041 55.1995 68.5401Z" fill="#8A3DB5"/>
<path fill-rule="evenodd" clip-rule="evenodd" d="M40.7144 58.719C40.7148 59.2944 40.7175 59.8694 40.7139 60.4444C40.7122 60.8352 40.515 61.0785 40.2007 61.0927C39.8837 61.1069 39.6346 60.849 39.6319 60.459C39.6239 59.2882 39.6231 58.1174 39.6337 56.9465C39.6377 56.5387 39.8601 56.3284 40.2144 56.3444C40.5337 56.3582 40.7113 56.5739 40.7135 56.963C40.7166 57.5477 40.7139 58.1334 40.7144 58.719Z" fill="#8A3DB5"/>
<path fill-rule="evenodd" clip-rule="evenodd" d="M54.7759 57.7452C54.7763 58.3206 54.779 58.896 54.7754 59.471C54.7737 59.8619 54.5765 60.1051 54.2622 60.1189C53.9452 60.1336 53.6961 59.8757 53.6934 59.4857C53.6855 58.3148 53.685 57.1435 53.6952 55.9731C53.6988 55.5654 53.9217 55.3551 54.2755 55.3711C54.5947 55.3848 54.7723 55.6005 54.7746 55.9896C54.7781 56.5744 54.7759 57.1596 54.7759 57.7452Z" fill="#8A3DB5"/>
<path fill-rule="evenodd" clip-rule="evenodd" d="M69.1096 45.6339C69.1096 45.6263 69.1375 37.703 69.1096 34.371C68.9546 15.7038 52.992 1.29751 34.6154 4.30088C11.85 8.02151 9.25357 28.7947 9.1075 30.3106C8.7199 34.3368 8.61911 42.0804 9.1075 45.2634C11.2222 44.5319 11.2222 44.5319 12.8174 43.9579C10.8688 29.9424 15.7611 20.035 20.3363 15.0946C31.0804 3.4929 49.4769 5.90573 60.0402 17.6706C68.1403 26.6918 65.6509 37.0226 65.5448 43.3482C65.5448 43.3482 67.7834 44.7778 69.1096 45.6339Z" fill="url(#paint0_linear_801635_883)"/>
<path fill-rule="evenodd" clip-rule="evenodd" d="M9.1075 44.6951C8.86108 44.8348 7.16683 45.6468 6.98701 45.8326C7.20901 45.6659 8.90593 44.853 9.1075 44.6951Z" fill="url(#paint1_linear_801635_883)" stroke="#620197" stroke-width="2" stroke-miterlimit="10"/>
<path d="M115.56 44V21.6H122.472V44H115.56ZM118.856 36.128V30.688H130.472V36.128H118.856ZM118.856 27.488V21.6H131.656V27.488H118.856ZM135.716 44V21.6H152.452V27.2H142.34V38.4H153.028V44H135.716ZM139.012 35.296V30.048H151.268V35.296H139.012ZM157.091 44V21.6H163.043L171.203 34.88L166.371 34.848L174.627 21.6H180.387V44H173.731V38.656C173.731 36.736 173.774 35.008 173.859 33.472C173.966 31.936 174.137 30.4107 174.371 28.896L175.139 30.912L169.731 39.296H167.619L162.307 30.912L163.107 28.896C163.342 30.3253 163.502 31.7973 163.587 33.312C163.694 34.8053 163.747 36.5867 163.747 38.656V44H157.091Z" fill="#5F0197"/>
<mask id="path-27-outside-1_801635_883" maskUnits="userSpaceOnUse" x="93" y="49" width="125" height="27" fill="black">
<rect fill="white" x="93" y="49" width="125" height="27"/>
<path d="M96.548 72V52.4H100.384L107.524 64.02L105.004 63.992L112.228 52.4H115.896V72H111.78V65.28C111.78 63.6 111.817 62.088 111.892 60.744C111.985 59.4 112.135 58.0653 112.34 56.74L112.844 58.056L107.104 66.96H105.256L99.628 58.112L100.104 56.74C100.309 57.9907 100.449 59.2787 100.524 60.604C100.617 61.9107 100.664 63.4693 100.664 65.28V72H96.548ZM129.897 72.168C128.311 72.168 126.892 71.8413 125.641 71.188C124.409 70.516 123.439 69.6013 122.729 68.444C122.02 67.268 121.665 65.9427 121.665 64.468V52.372H125.893V64.216C125.893 65 126.071 65.7093 126.425 66.344C126.78 66.96 127.256 67.4547 127.853 67.828C128.469 68.2013 129.151 68.388 129.897 68.388C130.663 68.388 131.353 68.2013 131.969 67.828C132.604 67.4547 133.099 66.96 133.453 66.344C133.827 65.7093 134.013 65 134.013 64.216V52.372H138.101V64.468C138.101 65.9427 137.747 67.268 137.037 68.444C136.328 69.6013 135.348 70.516 134.097 71.188C132.865 71.8413 131.465 72.168 129.897 72.168ZM149.947 72.28C148.734 72.28 147.623 72.1307 146.615 71.832C145.626 71.5333 144.739 71.0947 143.955 70.516C143.19 69.9373 142.499 69.2373 141.883 68.416L144.515 65.42C145.43 66.6893 146.335 67.5573 147.231 68.024C148.146 68.472 149.135 68.696 150.199 68.696C150.778 68.696 151.291 68.6213 151.739 68.472C152.206 68.304 152.57 68.0707 152.831 67.772C153.093 67.4733 153.223 67.1187 153.223 66.708C153.223 66.4093 153.158 66.1387 153.027 65.896C152.897 65.6347 152.71 65.4107 152.467 65.224C152.225 65.0187 151.935 64.8413 151.599 64.692C151.263 64.524 150.89 64.384 150.479 64.272C150.069 64.1413 149.621 64.0387 149.135 63.964C148.09 63.7213 147.175 63.432 146.391 63.096C145.607 62.7413 144.954 62.312 144.431 61.808C143.909 61.2853 143.517 60.6973 143.255 60.044C143.013 59.3907 142.891 58.6533 142.891 57.832C142.891 56.992 143.078 56.2173 143.451 55.508C143.825 54.78 144.338 54.1547 144.991 53.632C145.663 53.1093 146.429 52.708 147.287 52.428C148.165 52.148 149.089 52.008 150.059 52.008C151.254 52.008 152.299 52.148 153.195 52.428C154.091 52.6893 154.866 53.072 155.519 53.576C156.191 54.08 156.751 54.696 157.199 55.424L154.539 58C154.147 57.4773 153.718 57.0387 153.251 56.684C152.803 56.3293 152.309 56.068 151.767 55.9C151.245 55.7133 150.703 55.62 150.143 55.62C149.527 55.62 148.995 55.704 148.547 55.872C148.099 56.0213 147.745 56.2453 147.483 56.544C147.241 56.8427 147.119 57.2067 147.119 57.636C147.119 57.972 147.203 58.2707 147.371 58.532C147.539 58.7933 147.782 59.0267 148.099 59.232C148.417 59.4187 148.799 59.5867 149.247 59.736C149.695 59.8853 150.19 60.016 150.731 60.128C151.758 60.3333 152.682 60.604 153.503 60.94C154.325 61.276 155.025 61.6867 155.603 62.172C156.201 62.6387 156.658 63.1987 156.975 63.852C157.293 64.4867 157.451 65.2053 157.451 66.008C157.451 67.3333 157.134 68.4627 156.499 69.396C155.865 70.3293 154.987 71.048 153.867 71.552C152.747 72.0373 151.441 72.28 149.947 72.28ZM161.591 72V68.388H164.867V56.012H161.591V52.4H172.343V56.012H169.067V68.388H172.343V72H161.591ZM185.969 72.28C184.532 72.28 183.206 72.0373 181.993 71.552C180.798 71.048 179.753 70.348 178.857 69.452C177.98 68.5373 177.298 67.464 176.813 66.232C176.328 64.9813 176.085 63.6187 176.085 62.144C176.085 60.7067 176.337 59.3813 176.841 58.168C177.345 56.936 178.054 55.872 178.969 54.976C179.884 54.0613 180.957 53.352 182.189 52.848C183.421 52.344 184.756 52.092 186.193 52.092C187.126 52.092 188.041 52.2227 188.937 52.484C189.852 52.7267 190.682 53.0907 191.429 53.576C192.194 54.0613 192.848 54.64 193.389 55.312L190.757 58.224C190.309 57.776 189.842 57.3933 189.357 57.076C188.89 56.74 188.386 56.488 187.845 56.32C187.322 56.1333 186.762 56.04 186.165 56.04C185.362 56.04 184.606 56.1893 183.897 56.488C183.206 56.7867 182.6 57.2067 182.077 57.748C181.554 58.2707 181.134 58.9147 180.817 59.68C180.518 60.4267 180.369 61.2573 180.369 62.172C180.369 63.1053 180.518 63.9547 180.817 64.72C181.116 65.4667 181.536 66.1107 182.077 66.652C182.618 67.1747 183.262 67.5853 184.009 67.884C184.774 68.164 185.614 68.304 186.529 68.304C187.126 68.304 187.705 68.22 188.265 68.052C188.825 67.884 189.338 67.6507 189.805 67.352C190.29 67.0533 190.72 66.708 191.093 66.316L193.137 69.592C192.689 70.096 192.082 70.5533 191.317 70.964C190.57 71.3747 189.73 71.7013 188.797 71.944C187.864 72.168 186.921 72.28 185.969 72.28ZM195.194 72L202.866 52.4H206.618L214.262 72H209.95L206.002 61.444C205.89 61.1453 205.75 60.7627 205.582 60.296C205.432 59.8293 205.274 59.3347 205.106 58.812C204.938 58.2893 204.779 57.7947 204.63 57.328C204.48 56.8427 204.368 56.4413 204.294 56.124L205.05 56.096C204.938 56.5253 204.807 56.9733 204.658 57.44C204.527 57.888 204.387 58.3547 204.238 58.84C204.088 59.3067 203.93 59.764 203.762 60.212C203.594 60.66 203.435 61.0987 203.286 61.528L199.338 72H195.194ZM198.75 67.884L200.122 64.496H209.11L210.51 67.884H198.75Z"/>
</mask>
<path d="M96.548 72V52.4H100.384L107.524 64.02L105.004 63.992L112.228 52.4H115.896V72H111.78V65.28C111.78 63.6 111.817 62.088 111.892 60.744C111.985 59.4 112.135 58.0653 112.34 56.74L112.844 58.056L107.104 66.96H105.256L99.628 58.112L100.104 56.74C100.309 57.9907 100.449 59.2787 100.524 60.604C100.617 61.9107 100.664 63.4693 100.664 65.28V72H96.548ZM129.897 72.168C128.311 72.168 126.892 71.8413 125.641 71.188C124.409 70.516 123.439 69.6013 122.729 68.444C122.02 67.268 121.665 65.9427 121.665 64.468V52.372H125.893V64.216C125.893 65 126.071 65.7093 126.425 66.344C126.78 66.96 127.256 67.4547 127.853 67.828C128.469 68.2013 129.151 68.388 129.897 68.388C130.663 68.388 131.353 68.2013 131.969 67.828C132.604 67.4547 133.099 66.96 133.453 66.344C133.827 65.7093 134.013 65 134.013 64.216V52.372H138.101V64.468C138.101 65.9427 137.747 67.268 137.037 68.444C136.328 69.6013 135.348 70.516 134.097 71.188C132.865 71.8413 131.465 72.168 129.897 72.168ZM149.947 72.28C148.734 72.28 147.623 72.1307 146.615 71.832C145.626 71.5333 144.739 71.0947 143.955 70.516C143.19 69.9373 142.499 69.2373 141.883 68.416L144.515 65.42C145.43 66.6893 146.335 67.5573 147.231 68.024C148.146 68.472 149.135 68.696 150.199 68.696C150.778 68.696 151.291 68.6213 151.739 68.472C152.206 68.304 152.57 68.0707 152.831 67.772C153.093 67.4733 153.223 67.1187 153.223 66.708C153.223 66.4093 153.158 66.1387 153.027 65.896C152.897 65.6347 152.71 65.4107 152.467 65.224C152.225 65.0187 151.935 64.8413 151.599 64.692C151.263 64.524 150.89 64.384 150.479 64.272C150.069 64.1413 149.621 64.0387 149.135 63.964C148.09 63.7213 147.175 63.432 146.391 63.096C145.607 62.7413 144.954 62.312 144.431 61.808C143.909 61.2853 143.517 60.6973 143.255 60.044C143.013 59.3907 142.891 58.6533 142.891 57.832C142.891 56.992 143.078 56.2173 143.451 55.508C143.825 54.78 144.338 54.1547 144.991 53.632C145.663 53.1093 146.429 52.708 147.287 52.428C148.165 52.148 149.089 52.008 150.059 52.008C151.254 52.008 152.299 52.148 153.195 52.428C154.091 52.6893 154.866 53.072 155.519 53.576C156.191 54.08 156.751 54.696 157.199 55.424L154.539 58C154.147 57.4773 153.718 57.0387 153.251 56.684C152.803 56.3293 152.309 56.068 151.767 55.9C151.245 55.7133 150.703 55.62 150.143 55.62C149.527 55.62 148.995 55.704 148.547 55.872C148.099 56.0213 147.745 56.2453 147.483 56.544C147.241 56.8427 147.119 57.2067 147.119 57.636C147.119 57.972 147.203 58.2707 147.371 58.532C147.539 58.7933 147.782 59.0267 148.099 59.232C148.417 59.4187 148.799 59.5867 149.247 59.736C149.695 59.8853 150.19 60.016 150.731 60.128C151.758 60.3333 152.682 60.604 153.503 60.94C154.325 61.276 155.025 61.6867 155.603 62.172C156.201 62.6387 156.658 63.1987 156.975 63.852C157.293 64.4867 157.451 65.2053 157.451 66.008C157.451 67.3333 157.134 68.4627 156.499 69.396C155.865 70.3293 154.987 71.048 153.867 71.552C152.747 72.0373 151.441 72.28 149.947 72.28ZM161.591 72V68.388H164.867V56.012H161.591V52.4H172.343V56.012H169.067V68.388H172.343V72H161.591ZM185.969 72.28C184.532 72.28 183.206 72.0373 181.993 71.552C180.798 71.048 179.753 70.348 178.857 69.452C177.98 68.5373 177.298 67.464 176.813 66.232C176.328 64.9813 176.085 63.6187 176.085 62.144C176.085 60.7067 176.337 59.3813 176.841 58.168C177.345 56.936 178.054 55.872 178.969 54.976C179.884 54.0613 180.957 53.352 182.189 52.848C183.421 52.344 184.756 52.092 186.193 52.092C187.126 52.092 188.041 52.2227 188.937 52.484C189.852 52.7267 190.682 53.0907 191.429 53.576C192.194 54.0613 192.848 54.64 193.389 55.312L190.757 58.224C190.309 57.776 189.842 57.3933 189.357 57.076C188.89 56.74 188.386 56.488 187.845 56.32C187.322 56.1333 186.762 56.04 186.165 56.04C185.362 56.04 184.606 56.1893 183.897 56.488C183.206 56.7867 182.6 57.2067 182.077 57.748C181.554 58.2707 181.134 58.9147 180.817 59.68C180.518 60.4267 180.369 61.2573 180.369 62.172C180.369 63.1053 180.518 63.9547 180.817 64.72C181.116 65.4667 181.536 66.1107 182.077 66.652C182.618 67.1747 183.262 67.5853 184.009 67.884C184.774 68.164 185.614 68.304 186.529 68.304C187.126 68.304 187.705 68.22 188.265 68.052C188.825 67.884 189.338 67.6507 189.805 67.352C190.29 67.0533 190.72 66.708 191.093 66.316L193.137 69.592C192.689 70.096 192.082 70.5533 191.317 70.964C190.57 71.3747 189.73 71.7013 188.797 71.944C187.864 72.168 186.921 72.28 185.969 72.28ZM195.194 72L202.866 52.4H206.618L214.262 72H209.95L206.002 61.444C205.89 61.1453 205.75 60.7627 205.582 60.296C205.432 59.8293 205.274 59.3347 205.106 58.812C204.938 58.2893 204.779 57.7947 204.63 57.328C204.48 56.8427 204.368 56.4413 204.294 56.124L205.05 56.096C204.938 56.5253 204.807 56.9733 204.658 57.44C204.527 57.888 204.387 58.3547 204.238 58.84C204.088 59.3067 203.93 59.764 203.762 60.212C203.594 60.66 203.435 61.0987 203.286 61.528L199.338 72H195.194ZM198.75 67.884L200.122 64.496H209.11L210.51 67.884H198.75Z" fill="#8A3DB5"/>
<path d="M96.548 72H93.548C93.548 73.6569 94.8911 75 96.548 75V72ZM96.548 52.4V49.4C94.8911 49.4 93.548 50.7431 93.548 52.4H96.548ZM100.384 52.4L102.94 50.8294C102.394 49.9412 101.427 49.4 100.384 49.4V52.4ZM107.524 64.02L107.491 67.0198C108.583 67.032 109.596 66.4493 110.134 65.4988C110.673 64.5483 110.652 63.3802 110.08 62.4494L107.524 64.02ZM105.004 63.992L102.458 62.4053C101.885 63.3252 101.852 64.4828 102.373 65.4334C102.894 66.384 103.887 66.9798 104.971 66.9918L105.004 63.992ZM112.228 52.4V49.4C111.192 49.4 110.23 49.9343 109.682 50.8133L112.228 52.4ZM115.896 52.4H118.896C118.896 50.7431 117.553 49.4 115.896 49.4V52.4ZM115.896 72V75C117.553 75 118.896 73.6569 118.896 72H115.896ZM111.78 72H108.78C108.78 73.6569 110.123 75 111.78 75V72ZM111.892 60.744L108.899 60.5362C108.898 60.55 108.897 60.5638 108.897 60.5776L111.892 60.744ZM112.34 56.74L115.142 55.6671C114.655 54.3969 113.375 53.6129 112.023 53.7568C110.67 53.9008 109.584 54.9366 109.375 56.2807L112.34 56.74ZM112.844 58.056L115.365 59.6815C115.883 58.878 115.987 57.8758 115.646 56.9831L112.844 58.056ZM107.104 66.96V69.96C108.123 69.96 109.073 69.4423 109.625 68.5855L107.104 66.96ZM105.256 66.96L102.725 68.5701C103.275 69.4357 104.23 69.96 105.256 69.96V66.96ZM99.628 58.112L96.7937 57.1287C96.4935 57.9941 96.6051 58.9492 97.0967 59.7221L99.628 58.112ZM100.104 56.74L103.064 56.254C102.842 54.8993 101.728 53.8684 100.361 53.751C98.9927 53.6336 97.7197 54.4597 97.2697 55.7567L100.104 56.74ZM100.524 60.604L97.5287 60.7727C97.5296 60.7878 97.5306 60.8027 97.5316 60.8177L100.524 60.604ZM100.664 72V75C102.321 75 103.664 73.6569 103.664 72H100.664ZM99.548 72V52.4H93.548V72H99.548ZM96.548 55.4H100.384V49.4H96.548V55.4ZM97.828 53.9706L104.968 65.5906L110.08 62.4494L102.94 50.8294L97.828 53.9706ZM107.557 61.0202L105.037 60.9922L104.971 66.9918L107.491 67.0198L107.557 61.0202ZM107.55 65.5787L114.774 53.9867L109.682 50.8133L102.458 62.4053L107.55 65.5787ZM112.228 55.4H115.896V49.4H112.228V55.4ZM112.896 52.4V72H118.896V52.4H112.896ZM115.896 69H111.78V75H115.896V69ZM114.78 72V65.28H108.78V72H114.78ZM114.78 65.28C114.78 63.6426 114.816 62.1874 114.887 60.9104L108.897 60.5776C108.818 61.9886 108.78 63.5574 108.78 65.28H114.78ZM114.885 60.9518C114.972 59.6916 115.112 58.4409 115.305 57.1993L109.375 56.2807C109.157 57.6898 108.998 59.1084 108.899 60.5362L114.885 60.9518ZM109.538 57.8129L110.042 59.1289L115.646 56.9831L115.142 55.6671L109.538 57.8129ZM110.323 56.4305L104.583 65.3345L109.625 68.5855L115.365 59.6815L110.323 56.4305ZM107.104 63.96H105.256V69.96H107.104V63.96ZM107.787 65.3499L102.159 56.5019L97.0967 59.7221L102.725 68.5701L107.787 65.3499ZM102.462 59.0953L102.938 57.7233L97.2697 55.7567L96.7937 57.1287L102.462 59.0953ZM97.1436 57.226C97.3309 58.3668 97.4598 59.5487 97.5287 60.7727L103.519 60.4353C103.439 59.0086 103.288 57.6145 103.064 56.254L97.1436 57.226ZM97.5316 60.8177C97.6184 62.0323 97.664 63.5159 97.664 65.28H103.664C103.664 63.4228 103.616 61.7891 103.516 60.3903L97.5316 60.8177ZM97.664 65.28V72H103.664V65.28H97.664ZM100.664 69H96.548V75H100.664V69ZM125.641 71.188L124.205 73.8217C124.221 73.8303 124.236 73.8387 124.252 73.847L125.641 71.188ZM122.729 68.444L120.16 69.9935C120.164 69.9996 120.168 70.0056 120.172 70.0117L122.729 68.444ZM121.665 52.372V49.372C120.008 49.372 118.665 50.7151 118.665 52.372H121.665ZM125.893 52.372H128.893C128.893 50.7151 127.55 49.372 125.893 49.372V52.372ZM126.425 66.344L123.806 67.8075C123.813 67.8186 123.819 67.8298 123.825 67.8409L126.425 66.344ZM127.853 67.828L126.263 70.372C126.275 70.3793 126.287 70.3865 126.298 70.3936L127.853 67.828ZM131.969 67.828L130.448 65.2422C130.437 65.2489 130.426 65.2556 130.414 65.2624L131.969 67.828ZM133.453 66.344L130.868 64.8229C130.863 64.831 130.858 64.839 130.853 64.8471L133.453 66.344ZM134.013 52.372V49.372C132.356 49.372 131.013 50.7151 131.013 52.372H134.013ZM138.101 52.372H141.101C141.101 50.7151 139.758 49.372 138.101 49.372V52.372ZM137.037 68.444L139.595 70.0117C139.599 70.0056 139.603 69.9996 139.606 69.9935L137.037 68.444ZM134.097 71.188L135.503 73.8384C135.508 73.8358 135.512 73.8333 135.517 73.8307L134.097 71.188ZM129.897 69.168C128.733 69.168 127.801 68.9317 127.03 68.529L124.252 73.847C125.983 74.751 127.888 75.168 129.897 75.168V69.168ZM127.078 68.5543C126.29 68.1246 125.713 67.5709 125.287 66.8763L120.172 70.0117C121.164 71.6318 122.529 72.9074 124.205 73.8217L127.078 68.5543ZM125.298 66.8945C124.892 66.2207 124.665 65.4384 124.665 64.468H118.665C118.665 66.447 119.148 68.3153 120.16 69.9935L125.298 66.8945ZM124.665 64.468V52.372H118.665V64.468H124.665ZM121.665 55.372H125.893V49.372H121.665V55.372ZM122.893 52.372V64.216H128.893V52.372H122.893ZM122.893 64.216C122.893 65.471 123.182 66.6908 123.806 67.8075L129.044 64.8805C128.959 64.7279 128.893 64.529 128.893 64.216H122.893ZM123.825 67.8409C124.423 68.8794 125.245 69.7353 126.263 70.372L129.443 65.284C129.267 65.174 129.137 65.0406 129.025 64.8471L123.825 67.8409ZM126.298 70.3936C127.401 71.0618 128.623 71.388 129.897 71.388V65.388C129.678 65.388 129.538 65.3409 129.408 65.2624L126.298 70.3936ZM129.897 71.388C131.175 71.388 132.41 71.069 133.524 70.3936L130.414 65.2624C130.297 65.3336 130.15 65.388 129.897 65.388V71.388ZM133.49 70.4138C134.556 69.7869 135.43 68.9237 136.053 67.8409L130.853 64.8471C130.768 64.9963 130.652 65.1224 130.448 65.2422L133.49 70.4138ZM136.039 67.8651C136.701 66.7393 137.013 65.4989 137.013 64.216H131.013C131.013 64.5011 130.952 64.6793 130.868 64.8229L136.039 67.8651ZM137.013 64.216V52.372H131.013V64.216H137.013ZM134.013 55.372H138.101V49.372H134.013V55.372ZM135.101 52.372V64.468H141.101V52.372H135.101ZM135.101 64.468C135.101 65.4384 134.875 66.2207 134.468 66.8945L139.606 69.9935C140.618 68.3153 141.101 66.447 141.101 64.468H135.101ZM134.48 66.8763C134.061 67.5597 133.483 68.1126 132.677 68.5453L135.517 73.8307C137.213 72.9194 138.595 71.6429 139.595 70.0117L134.48 66.8763ZM132.692 68.5376C131.944 68.9341 131.037 69.168 129.897 69.168V75.168C131.894 75.168 133.786 74.7486 135.503 73.8384L132.692 68.5376ZM146.615 71.832L145.748 74.704C145.753 74.7055 145.758 74.7069 145.763 74.7084L146.615 71.832ZM143.955 70.516L142.146 72.909C142.155 72.9159 142.164 72.9229 142.174 72.9297L143.955 70.516ZM141.883 68.416L139.629 66.436C138.692 67.5027 138.631 69.0802 139.483 70.216L141.883 68.416ZM144.515 65.42L146.949 63.6661C146.415 62.9249 145.572 62.4675 144.66 62.4235C143.747 62.3795 142.864 62.7537 142.261 63.44L144.515 65.42ZM147.231 68.024L145.845 70.6847C145.867 70.6962 145.889 70.7073 145.912 70.7182L147.231 68.024ZM151.739 68.472L152.688 71.3181C152.711 71.3105 152.733 71.3027 152.755 71.2947L151.739 68.472ZM152.831 67.772L155.089 69.7475V69.7475L152.831 67.772ZM153.027 65.896L150.344 67.2376C150.358 67.2647 150.372 67.2916 150.386 67.3183L153.027 65.896ZM152.467 65.224L150.529 67.5142C150.565 67.5442 150.601 67.5735 150.638 67.6019L152.467 65.224ZM151.599 64.692L150.258 67.3753C150.298 67.3956 150.339 67.415 150.381 67.4334L151.599 64.692ZM150.479 64.272L149.57 67.1308C149.61 67.1435 149.65 67.1553 149.69 67.1663L150.479 64.272ZM149.135 63.964L148.457 66.8863C148.53 66.9034 148.605 66.9176 148.679 66.9291L149.135 63.964ZM146.391 63.096L145.155 65.8293C145.173 65.8375 145.191 65.8456 145.21 65.8534L146.391 63.096ZM144.431 61.808L142.31 63.9293C142.323 63.9422 142.336 63.9549 142.349 63.9675L144.431 61.808ZM143.255 60.044L140.443 61.0886C140.452 61.1119 140.461 61.1351 140.47 61.1582L143.255 60.044ZM143.451 55.508L146.106 56.9052C146.111 56.8958 146.116 56.8864 146.121 56.8769L143.451 55.508ZM144.991 53.632L143.149 51.2639C143.139 51.2724 143.128 51.2808 143.117 51.2894L144.991 53.632ZM147.287 52.428L146.375 49.57C146.369 49.5719 146.363 49.5739 146.357 49.5758L147.287 52.428ZM153.195 52.428L152.3 55.2914C152.319 55.2971 152.337 55.3027 152.355 55.308L153.195 52.428ZM155.519 53.576L153.687 55.9513C153.698 55.9596 153.708 55.9679 153.719 55.976L155.519 53.576ZM157.199 55.424L159.286 57.5791C160.297 56.6001 160.492 55.0501 159.754 53.8517L157.199 55.424ZM154.539 58L152.139 59.8C152.656 60.489 153.444 60.9227 154.303 60.9907C155.161 61.0586 156.008 60.7542 156.626 60.1551L154.539 58ZM153.251 56.684L151.389 59.0361C151.405 59.0484 151.42 59.0605 151.436 59.0725L153.251 56.684ZM151.767 55.9L150.758 58.7252C150.798 58.7394 150.838 58.7527 150.878 58.7652L151.767 55.9ZM148.547 55.872L149.496 58.718C149.531 58.7063 149.566 58.694 149.601 58.681L148.547 55.872ZM147.483 56.544L145.226 54.5685C145.202 54.596 145.178 54.6239 145.155 54.6522L147.483 56.544ZM147.371 58.532L149.895 56.9097V56.9097L147.371 58.532ZM148.099 59.232L146.47 61.7507C146.505 61.7738 146.542 61.7962 146.578 61.8178L148.099 59.232ZM149.247 59.736L150.196 56.8899L150.196 56.8899L149.247 59.736ZM150.731 60.128L150.123 63.0658C150.13 63.0671 150.136 63.0684 150.143 63.0697L150.731 60.128ZM155.603 62.172L153.675 64.4706C153.702 64.4929 153.729 64.5147 153.756 64.5361L155.603 62.172ZM156.975 63.852L154.277 65.1627C154.282 65.173 154.287 65.1834 154.292 65.1936L156.975 63.852ZM156.499 69.396L158.98 71.0829V71.0829L156.499 69.396ZM153.867 71.552L155.06 74.3047C155.073 74.2991 155.086 74.2935 155.098 74.2878L153.867 71.552ZM149.947 69.28C148.979 69.28 148.16 69.1608 147.468 68.9556L145.763 74.7084C147.086 75.1005 148.489 75.28 149.947 75.28V69.28ZM147.482 68.96C146.802 68.7546 146.228 68.4649 145.737 68.1023L142.174 72.9297C143.25 73.7244 144.45 74.3121 145.748 74.704L147.482 68.96ZM145.765 68.123C145.238 67.7249 144.743 67.2287 144.283 66.616L139.483 70.216C140.256 71.246 141.142 72.1498 142.146 72.909L145.765 68.123ZM144.137 70.396L146.769 67.4L142.261 63.44L139.629 66.436L144.137 70.396ZM142.081 67.1739C143.134 68.6346 144.368 69.9152 145.845 70.6847L148.617 65.3633C148.303 65.1994 147.726 64.7441 146.949 63.6661L142.081 67.1739ZM145.912 70.7182C147.256 71.3764 148.699 71.696 150.199 71.696V65.696C149.572 65.696 149.036 65.5676 148.551 65.3298L145.912 70.7182ZM150.199 71.696C151.03 71.696 151.874 71.5893 152.688 71.3181L150.791 65.6259C150.708 65.6533 150.525 65.696 150.199 65.696V71.696ZM152.755 71.2947C153.583 70.9966 154.419 70.5137 155.089 69.7475L150.574 65.7965C150.721 65.6277 150.829 65.6114 150.723 65.6493L152.755 71.2947ZM155.089 69.7475C155.847 68.8815 156.223 67.8176 156.223 66.708H150.223C150.223 66.5901 150.243 66.4272 150.31 66.2449C150.378 66.061 150.475 65.9093 150.574 65.7965L155.089 69.7475ZM156.223 66.708C156.223 65.9555 156.054 65.1895 155.669 64.4737L150.386 67.3183C150.262 67.0878 150.223 66.8632 150.223 66.708H156.223ZM155.711 64.5544C155.367 63.868 154.881 63.2956 154.296 62.8461L150.638 67.6019C150.539 67.5257 150.426 67.4013 150.344 67.2376L155.711 64.5544ZM154.405 62.9338C153.914 62.5186 153.374 62.1978 152.818 61.9506L150.381 67.4334C150.497 67.4849 150.535 67.5187 150.529 67.5142L154.405 62.9338ZM152.941 62.0087C152.407 61.7416 151.845 61.535 151.269 61.3777L149.69 67.1663C149.935 67.233 150.12 67.3064 150.258 67.3753L152.941 62.0087ZM151.389 61.4132C150.811 61.2294 150.21 61.094 149.591 60.9989L148.679 66.9291C149.032 66.9833 149.326 67.0532 149.57 67.1308L151.389 61.4132ZM149.814 61.0417C148.899 60.8293 148.159 60.5898 147.573 60.3386L145.21 65.8534C146.191 66.2742 147.281 66.6133 148.457 66.8863L149.814 61.0417ZM147.628 60.3627C147.1 60.1239 146.748 59.8747 146.514 59.6485L142.349 63.9675C143.16 64.7493 144.115 65.3587 145.155 65.8293L147.628 60.3627ZM146.553 59.6867C146.302 59.4365 146.144 59.187 146.041 58.9298L140.47 61.1582C140.89 62.2076 141.515 63.1341 142.31 63.9293L146.553 59.6867ZM146.068 58.9994C145.969 58.7342 145.891 58.359 145.891 57.832H139.891C139.891 58.9476 140.056 60.0472 140.443 61.0886L146.068 58.9994ZM145.891 57.832C145.891 57.4548 145.97 57.1629 146.106 56.9052L140.797 54.1108C140.185 55.2718 139.891 56.5292 139.891 57.832H145.891ZM146.121 56.8769C146.296 56.5347 146.535 56.2387 146.865 55.9746L143.117 51.2894C142.141 52.0706 141.353 53.0253 140.782 54.139L146.121 56.8769ZM146.833 56.0001C147.215 55.7029 147.668 55.4593 148.217 55.2802L146.357 49.5758C145.189 49.9567 144.111 50.5158 143.149 51.2639L146.833 56.0001ZM148.199 55.286C148.766 55.1051 149.381 55.008 150.059 55.008V49.008C148.796 49.008 147.563 49.1909 146.375 49.57L148.199 55.286ZM150.059 55.008C151.029 55.008 151.761 55.1227 152.3 55.2914L154.09 49.5646C152.838 49.1733 151.479 49.008 150.059 49.008V55.008ZM152.355 55.308C152.939 55.4782 153.366 55.704 153.687 55.9513L157.352 51.2007C156.366 50.44 155.244 49.9005 154.035 49.548L152.355 55.308ZM153.719 55.976C154.084 56.2499 154.39 56.5834 154.644 56.9963L159.754 53.8517C159.112 52.8086 158.298 51.9101 157.319 51.176L153.719 55.976ZM155.112 53.2689L152.452 55.8449L156.626 60.1551L159.286 57.5791L155.112 53.2689ZM156.939 56.2C156.399 55.4802 155.778 54.8363 155.067 54.2955L151.436 59.0725C151.658 59.241 151.895 59.4745 152.139 59.8L156.939 56.2ZM155.113 54.3319C154.378 53.7496 153.554 53.3133 152.656 53.0348L150.878 58.7652C151.063 58.8227 151.229 58.9091 151.389 59.0361L155.113 54.3319ZM152.776 53.0748C151.927 52.7714 151.044 52.62 150.143 52.62V58.62C150.363 58.62 150.562 58.6553 150.758 58.7252L152.776 53.0748ZM150.143 52.62C149.266 52.62 148.36 52.7382 147.494 53.063L149.601 58.681C149.631 58.6698 149.789 58.62 150.143 58.62V52.62ZM147.599 53.0259C146.741 53.3117 145.9 53.7982 145.226 54.5685L149.741 58.5195C149.671 58.5999 149.6 58.6549 149.547 58.6885C149.496 58.7206 149.473 58.7257 149.496 58.718L147.599 53.0259ZM145.155 54.6522C144.427 55.5478 144.119 56.6023 144.119 57.636H150.119C150.119 57.7058 150.109 57.8317 150.056 57.9897C150.002 58.1517 149.918 58.3054 149.812 58.4358L145.155 54.6522ZM144.119 57.636C144.119 58.4984 144.343 59.3695 144.848 60.1543L149.895 56.9097C149.972 57.0291 150.032 57.1621 150.07 57.2998C150.108 57.4357 150.119 57.552 150.119 57.636H144.119ZM144.848 60.1543C145.291 60.8436 145.87 61.3627 146.47 61.7507L149.729 56.7133C149.694 56.6906 149.788 56.743 149.895 56.9097L144.848 60.1543ZM146.578 61.8178C147.119 62.136 147.704 62.3839 148.299 62.5821L150.196 56.8899C149.894 56.7895 149.714 56.7013 149.62 56.6462L146.578 61.8178ZM148.299 62.582C148.875 62.7743 149.486 62.9338 150.123 63.0658L151.339 57.1902C150.894 57.0982 150.515 56.9964 150.196 56.8899L148.299 62.582ZM150.143 63.0697C151.015 63.2441 151.751 63.4645 152.367 63.7166L154.639 58.1634C153.613 57.7435 152.501 57.4226 151.32 57.1863L150.143 63.0697ZM152.367 63.7166C152.951 63.9552 153.372 64.2159 153.675 64.4706L157.531 59.8734C156.677 59.1574 155.699 58.5968 154.639 58.1634L152.367 63.7166ZM153.756 64.5361C154.009 64.7338 154.168 64.9389 154.277 65.1627L159.674 62.5413C159.148 61.4584 158.392 60.5436 157.45 59.8079L153.756 64.5361ZM154.292 65.1936C154.375 65.36 154.451 65.6095 154.451 66.008H160.451C160.451 64.8012 160.21 63.6134 159.659 62.5104L154.292 65.1936ZM154.451 66.008C154.451 66.839 154.259 67.3552 154.019 67.7091L158.98 71.0829C160.009 69.5702 160.451 67.8277 160.451 66.008H154.451ZM154.019 67.7091C153.723 68.1439 153.297 68.5189 152.636 68.8162L155.098 74.2878C156.678 73.5771 158.006 72.5147 158.98 71.0829L154.019 67.7091ZM152.674 68.7993C152.005 69.0894 151.12 69.28 149.947 69.28V75.28C151.762 75.28 153.489 74.9853 155.06 74.3047L152.674 68.7993ZM161.591 72H158.591C158.591 73.6569 159.934 75 161.591 75V72ZM161.591 68.388V65.388C159.934 65.388 158.591 66.7311 158.591 68.388H161.591ZM164.867 68.388V71.388C166.524 71.388 167.867 70.0449 167.867 68.388H164.867ZM164.867 56.012H167.867C167.867 54.3551 166.524 53.012 164.867 53.012V56.012ZM161.591 56.012H158.591C158.591 57.6689 159.934 59.012 161.591 59.012V56.012ZM161.591 52.4V49.4C159.934 49.4 158.591 50.7431 158.591 52.4H161.591ZM172.343 52.4H175.343C175.343 50.7431 174 49.4 172.343 49.4V52.4ZM172.343 56.012V59.012C174 59.012 175.343 57.6689 175.343 56.012H172.343ZM169.067 56.012V53.012C167.41 53.012 166.067 54.3551 166.067 56.012H169.067ZM169.067 68.388H166.067C166.067 70.0449 167.41 71.388 169.067 71.388V68.388ZM172.343 68.388H175.343C175.343 66.7311 174 65.388 172.343 65.388V68.388ZM172.343 72V75C174 75 175.343 73.6569 175.343 72H172.343ZM164.591 72V68.388H158.591V72H164.591ZM161.591 71.388H164.867V65.388H161.591V71.388ZM167.867 68.388V56.012H161.867V68.388H167.867ZM164.867 53.012H161.591V59.012H164.867V53.012ZM164.591 56.012V52.4H158.591V56.012H164.591ZM161.591 55.4H172.343V49.4H161.591V55.4ZM169.343 52.4V56.012H175.343V52.4H169.343ZM172.343 53.012H169.067V59.012H172.343V53.012ZM166.067 56.012V68.388H172.067V56.012H166.067ZM169.067 71.388H172.343V65.388H169.067V71.388ZM169.343 68.388V72H175.343V68.388H169.343ZM172.343 69H161.591V75H172.343V69ZM181.993 71.552L180.827 74.3161C180.844 74.3234 180.861 74.3305 180.879 74.3374L181.993 71.552ZM178.857 69.452L176.692 71.5287C176.706 71.5437 176.721 71.5586 176.736 71.5733L178.857 69.452ZM176.813 66.232L174.016 67.3173C174.018 67.3221 174.02 67.3268 174.022 67.3316L176.813 66.232ZM176.841 58.168L179.611 59.3188C179.613 59.3139 179.615 59.3089 179.617 59.3039L176.841 58.168ZM178.969 54.976L181.068 57.1191C181.076 57.1119 181.083 57.1046 181.09 57.0973L178.969 54.976ZM182.189 52.848L181.053 50.0714L182.189 52.848ZM188.937 52.484L188.097 55.364C188.12 55.3708 188.144 55.3774 188.168 55.3837L188.937 52.484ZM191.429 53.576L189.794 56.0913C189.803 56.0974 189.813 56.1035 189.822 56.1095L191.429 53.576ZM193.389 55.312L195.614 57.3236C196.603 56.2294 196.65 54.5786 195.725 53.43L193.389 55.312ZM190.757 58.224L188.636 60.3453C189.217 60.9265 190.011 61.2438 190.833 61.223C191.654 61.2023 192.431 60.8454 192.982 60.2356L190.757 58.224ZM189.357 57.076L187.604 59.5106C187.64 59.5369 187.677 59.5623 187.715 59.5869L189.357 57.076ZM187.845 56.32L186.836 59.1452C186.875 59.1594 186.915 59.1727 186.956 59.1852L187.845 56.32ZM183.897 56.488L182.733 53.7231C182.724 53.7268 182.715 53.7306 182.706 53.7344L183.897 56.488ZM182.077 57.748L184.198 59.8693C184.211 59.8569 184.223 59.8444 184.235 59.8318L182.077 57.748ZM180.817 59.68L178.046 58.531C178.041 58.5425 178.036 58.5542 178.031 58.5658L180.817 59.68ZM180.817 64.72L178.022 65.8106C178.025 65.8185 178.028 65.8263 178.031 65.8342L180.817 64.72ZM182.077 66.652L179.956 68.7733C179.968 68.7857 179.98 68.798 179.993 68.8102L182.077 66.652ZM184.009 67.884L182.895 70.6694C182.922 70.6805 182.95 70.6911 182.978 70.7014L184.009 67.884ZM188.265 68.052L187.403 65.1785L188.265 68.052ZM189.805 67.352L188.233 64.797C188.218 64.8063 188.203 64.8157 188.188 64.8252L189.805 67.352ZM191.093 66.316L193.638 64.728C193.147 63.9411 192.32 63.4255 191.397 63.3315C190.474 63.2374 189.56 63.5754 188.92 64.247L191.093 66.316ZM193.137 69.592L195.379 71.5851C196.263 70.5906 196.386 69.1328 195.682 68.004L193.137 69.592ZM191.317 70.964L189.898 68.3205C189.889 68.3254 189.88 68.3304 189.871 68.3354L191.317 70.964ZM188.797 71.944L189.497 74.8612C189.515 74.8568 189.534 74.8522 189.552 74.8475L188.797 71.944ZM185.969 69.28C184.875 69.28 183.932 69.0966 183.107 68.7666L180.879 74.3374C182.48 74.978 184.188 75.28 185.969 75.28V69.28ZM183.159 68.7879C182.313 68.4309 181.594 67.9463 180.978 67.3307L176.736 71.5733C177.912 72.7497 179.284 73.6651 180.827 74.3161L183.159 68.7879ZM181.022 67.3753C180.427 66.7551 179.953 66.0176 179.604 65.1324L174.022 67.3316C174.644 68.9104 175.532 70.3196 176.692 71.5287L181.022 67.3753ZM179.61 65.1467C179.271 64.2749 179.085 63.2843 179.085 62.144H173.085C173.085 63.953 173.384 65.6878 174.016 67.3173L179.61 65.1467ZM179.085 62.144C179.085 61.0643 179.273 60.1344 179.611 59.3188L174.07 57.0172C173.401 58.6282 173.085 60.349 173.085 62.144H179.085ZM179.617 59.3039C179.973 58.435 180.457 57.7177 181.068 57.1191L176.87 52.8329C175.651 54.0263 174.717 55.437 174.064 57.0321L179.617 59.3039ZM181.09 57.0973C181.715 56.4726 182.451 55.9823 183.325 55.6246L181.053 50.0714C179.463 50.7217 178.052 51.6501 176.848 52.8547L181.09 57.0973ZM183.325 55.6246C184.168 55.2796 185.114 55.092 186.193 55.092V49.092C184.397 49.092 182.673 49.4084 181.053 50.0714L183.325 55.6246ZM186.193 55.092C186.842 55.092 187.474 55.1823 188.097 55.364L189.777 49.604C188.608 49.2631 187.41 49.092 186.193 49.092V55.092ZM188.168 55.3837C188.794 55.55 189.33 55.7897 189.794 56.0913L193.064 51.0607C192.035 50.3916 190.909 49.9033 189.706 49.5843L188.168 55.3837ZM189.822 56.1095C190.324 56.428 190.727 56.7902 191.053 57.194L195.725 53.43C194.968 52.4898 194.064 51.6947 193.035 51.0425L189.822 56.1095ZM191.163 53.3004L188.531 56.2124L192.982 60.2356L195.614 57.3236L191.163 53.3004ZM192.878 56.1027C192.297 55.522 191.672 55.0053 190.999 54.5651L187.715 59.5869C188.013 59.7814 188.32 60.03 188.636 60.3453L192.878 56.1027ZM191.11 54.6414C190.384 54.119 189.589 53.7202 188.734 53.4548L186.956 59.1852C187.183 59.2558 187.396 59.361 187.604 59.5106L191.11 54.6414ZM188.854 53.4948C187.983 53.1839 187.08 53.04 186.165 53.04V59.04C186.445 59.04 186.661 59.0827 186.836 59.1452L188.854 53.4948ZM186.165 53.04C184.98 53.04 183.826 53.2626 182.733 53.7231L185.061 59.2529C185.386 59.116 185.745 59.04 186.165 59.04V53.04ZM182.706 53.7344C181.652 54.1903 180.716 54.8379 179.919 55.6642L184.235 59.8318C184.483 59.5754 184.76 59.383 185.088 59.2416L182.706 53.7344ZM179.956 55.6267C179.123 56.4594 178.496 57.4459 178.046 58.531L183.588 60.829C183.773 60.3834 183.986 60.0819 184.198 59.8693L179.956 55.6267ZM178.031 58.5658C177.573 59.7122 177.369 60.9277 177.369 62.172H183.369C183.369 61.587 183.463 61.1412 183.602 60.7942L178.031 58.5658ZM177.369 62.172C177.369 63.4281 177.571 64.6537 178.022 65.8106L183.612 63.6294C183.466 63.2557 183.369 62.7825 183.369 62.172H177.369ZM178.031 65.8342C178.473 66.9387 179.113 67.9303 179.956 68.7733L184.198 64.5307C183.959 64.291 183.758 63.9947 183.602 63.6058L178.031 65.8342ZM179.993 68.8102C180.833 69.6209 181.812 70.2365 182.895 70.6694L185.123 65.0986C184.712 64.9342 184.404 64.7284 184.161 64.4938L179.993 68.8102ZM182.978 70.7014C184.112 71.116 185.305 71.304 186.529 71.304V65.304C185.923 65.304 185.437 65.212 185.04 65.0666L182.978 70.7014ZM186.529 71.304C187.412 71.304 188.281 71.1792 189.127 70.9255L187.403 65.1785C187.129 65.2608 186.841 65.304 186.529 65.304V71.304ZM189.127 70.9255C189.939 70.6819 190.708 70.3356 191.422 69.8788L188.188 64.8252C187.968 64.9658 187.711 65.0861 187.403 65.1785L189.127 70.9255ZM191.377 69.907C192.071 69.48 192.705 68.9738 193.265 68.385L188.92 64.247C188.735 64.4422 188.509 64.6267 188.233 64.797L191.377 69.907ZM188.548 67.904L190.592 71.18L195.682 68.004L193.638 64.728L188.548 67.904ZM190.895 67.5989C190.737 67.7758 190.438 68.0309 189.898 68.3205L192.735 73.6075C193.726 73.0758 194.64 72.4162 195.379 71.5851L190.895 67.5989ZM189.871 68.3354C189.369 68.6116 188.766 68.8524 188.042 69.0405L189.552 74.8475C190.695 74.5503 191.772 74.1377 192.763 73.5926L189.871 68.3354ZM188.097 69.0268C187.391 69.1963 186.683 69.28 185.969 69.28V75.28C187.159 75.28 188.336 75.1397 189.497 74.8612L188.097 69.0268ZM195.194 72L192.4 70.9065C192.039 71.8298 192.157 72.8721 192.716 73.6911C193.274 74.5101 194.202 75 195.194 75V72ZM202.866 52.4V49.4C201.631 49.4 200.522 50.1566 200.072 51.3065L202.866 52.4ZM206.618 52.4L209.412 51.31C208.963 50.1583 207.854 49.4 206.618 49.4V52.4ZM214.262 72V75C215.252 75 216.179 74.5107 216.738 73.6926C217.297 72.8745 217.417 71.8331 217.056 70.91L214.262 72ZM209.95 72L207.14 73.0509C207.578 74.2231 208.698 75 209.95 75V72ZM206.002 61.444L208.811 60.3931L208.811 60.3906L206.002 61.444ZM205.582 60.296L202.724 61.2103C202.735 61.2445 202.747 61.2784 202.759 61.3122L205.582 60.296ZM204.63 57.328L201.762 58.2103C201.765 58.221 201.769 58.2317 201.772 58.2423L204.63 57.328ZM204.294 56.124L204.182 53.1261C203.286 53.1593 202.452 53.5919 201.908 54.3052C201.364 55.0186 201.168 55.9379 201.373 56.8111L204.294 56.124ZM205.05 56.096L207.952 56.8533C208.192 55.9353 207.983 54.9581 207.389 54.2182C206.795 53.4783 205.887 53.0629 204.938 53.0981L205.05 56.096ZM204.658 57.44L201.8 56.5257C201.792 56.5503 201.785 56.5751 201.778 56.6L204.658 57.44ZM204.238 58.84L207.095 59.7543C207.098 59.7437 207.102 59.733 207.105 59.7223L204.238 58.84ZM203.762 60.212L200.953 59.1586L203.762 60.212ZM203.286 61.528L206.093 62.5863C206.102 62.5622 206.111 62.5379 206.119 62.5136L203.286 61.528ZM199.338 72V75C200.586 75 201.704 74.2266 202.145 73.0583L199.338 72ZM198.75 67.884L195.969 66.758C195.594 67.6827 195.704 68.7332 196.262 69.5606C196.819 70.388 197.752 70.884 198.75 70.884V67.884ZM200.122 64.496V61.496C198.899 61.496 197.8 62.2373 197.341 63.37L200.122 64.496ZM209.11 64.496L211.882 63.3503C211.418 62.228 210.324 61.496 209.11 61.496V64.496ZM210.51 67.884V70.884C211.511 70.884 212.446 70.3842 213.003 69.5518C213.56 68.7193 213.665 67.6639 213.282 66.7383L210.51 67.884ZM197.987 73.0935L205.659 53.4935L200.072 51.3065L192.4 70.9065L197.987 73.0935ZM202.866 55.4H206.618V49.4H202.866V55.4ZM203.823 53.49L211.467 73.09L217.056 70.91L209.412 51.31L203.823 53.49ZM214.262 69H209.95V75H214.262V69ZM212.759 70.9491L208.811 60.3931L203.192 62.4949L207.14 73.0509L212.759 70.9491ZM208.811 60.3906C208.705 60.1091 208.57 59.7401 208.404 59.2798L202.759 61.3122C202.929 61.7853 203.074 62.1815 203.193 62.4974L208.811 60.3906ZM208.439 59.3817C208.289 58.9136 208.13 58.4177 207.962 57.894L202.249 59.73C202.417 60.2516 202.575 60.745 202.724 61.2103L208.439 59.3817ZM207.962 57.894C207.794 57.3724 207.636 56.879 207.487 56.4137L201.772 58.2423C201.922 58.7104 202.081 59.2063 202.249 59.73L207.962 57.894ZM207.497 56.4457C207.358 55.9937 207.267 55.6631 207.214 55.4369L201.373 56.8111C201.469 57.2196 201.603 57.6917 201.762 58.2103L207.497 56.4457ZM204.405 59.1219L205.161 59.0939L204.938 53.0981L204.182 53.1261L204.405 59.1219ZM202.147 55.3387C202.05 55.7102 201.935 56.1057 201.8 56.5257L207.515 58.3543C207.679 57.841 207.825 57.3405 207.952 56.8533L202.147 55.3387ZM201.778 56.6C201.651 57.0327 201.516 57.4853 201.37 57.9577L207.105 59.7223C207.258 59.2241 207.402 58.7433 207.538 58.28L201.778 56.6ZM201.38 57.9257C201.246 58.3467 201.103 58.7577 200.953 59.1586L206.571 61.2654C206.756 60.7703 206.931 60.2666 207.095 59.7543L201.38 57.9257ZM200.953 59.1586C200.777 59.628 200.61 60.0893 200.452 60.5424L206.119 62.5136C206.26 62.1081 206.411 61.692 206.571 61.2654L200.953 59.1586ZM200.478 60.4697L196.53 70.9417L202.145 73.0583L206.093 62.5863L200.478 60.4697ZM199.338 69H195.194V75H199.338V69ZM201.53 69.01L202.902 65.622L197.341 63.37L195.969 66.758L201.53 69.01ZM200.122 67.496H209.11V61.496H200.122V67.496ZM206.337 65.6417L207.737 69.0297L213.282 66.7383L211.882 63.3503L206.337 65.6417ZM210.51 64.884H198.75V70.884H210.51V64.884Z" fill="#60019B" mask="url(#path-27-outside-1_801635_883)"/>
<path d="M204.5 60L204 62.5H205L204.5 60Z" fill="white"/>
<defs>
<linearGradient id="paint0_linear_801635_883" x1="38.95" y1="45.634" x2="38.95" y2="3.90378" gradientUnits="userSpaceOnUse">
<stop stop-color="#006C77"/>
<stop offset="0.2488" stop-color="#20B2AD"/>
</linearGradient>
<linearGradient id="paint1_linear_801635_883" x1="8.04726" y1="45.8324" x2="8.04726" y2="44.6951" gradientUnits="userSpaceOnUse">
<stop stop-color="#006C77"/>
<stop offset="0.2488" stop-color="#20B2AD"/>
</linearGradient>
</defs>
</svg>
