<svg width="72" height="72" viewBox="0 0 72 72" fill="none" xmlns="http://www.w3.org/2000/svg">
<rect width="72" height="72" rx="36" fill="#F0E3F7"/>
<path d="M36 38C38.206 38 40 36.206 40 34C40 31.794 38.206 30 36 30C33.794 30 32 31.794 32 34C32 36.206 33.794 38 36 38ZM36 32C37.103 32 38 32.897 38 34C38 35.103 37.103 36 36 36C34.897 36 34 35.103 34 34C34 32.897 34.897 32 36 32Z" fill="#310D75"/>
<path d="M35.4201 45.814C35.5893 45.9349 35.7921 45.9998 36.0001 45.9998C36.2081 45.9998 36.4108 45.9349 36.5801 45.814C36.8841 45.599 44.0291 40.44 44.0001 34C44.0001 29.589 40.4111 26 36.0001 26C31.5891 26 28.0001 29.589 28.0001 33.995C27.9711 40.44 35.1161 45.599 35.4201 45.814ZM36.0001 28C39.3091 28 42.0001 30.691 42.0001 34.005C42.0211 38.443 37.6121 42.428 36.0001 43.735C34.3891 42.427 29.9791 38.441 30.0001 34C30.0001 30.691 32.6911 28 36.0001 28Z" fill="#333333"/>
</svg>
