<svg width="72" height="72" viewBox="0 0 72 72" fill="none" xmlns="http://www.w3.org/2000/svg">
<rect width="72" height="72" rx="36" fill="#F0E3F7"/>
<path d="M39.5 25H31.5C30.837 25 30.2011 25.2634 29.7322 25.7322C29.2634 26.2011 29 26.837 29 27.5V44.5C29 45.163 29.2634 45.7989 29.7322 46.2678C30.2011 46.7366 30.837 47 31.5 47H39.5C40.163 47 40.7989 46.7366 41.2678 46.2678C41.7366 45.7989 42 45.163 42 44.5V27.5C42 26.837 41.7366 26.2011 41.2678 25.7322C40.7989 25.2634 40.163 25 39.5 25ZM35.5 46C34.67 46 34 45.33 34 44.5C34 43.67 34.67 43 35.5 43C36.33 43 37 43.67 37 44.5C37 45.33 36.33 46 35.5 46ZM40 42H31V28H40V42Z" fill="#310D75"/>
</svg>
